<mxfile host="app.diagrams.net" agent="Mozilla/5.0 (Windows NT 10.0; Win64; x64) AppleWebKit/537.36 (KHTML, like Gecko) Chrome/135.0.0.0 Safari/537.36" version="26.3.0">
  <diagram id="C5RBs43oDa-KdzZeNtuy" name="Page-1">
    <mxGraphModel dx="1042" dy="527" grid="1" gridSize="10" guides="1" tooltips="1" connect="1" arrows="1" fold="1" page="1" pageScale="1" pageWidth="827" pageHeight="1169" math="0" shadow="0">
      <root>
        <mxCell id="WIyWlLk6GJQsqaUBKTNV-0" />
        <mxCell id="WIyWlLk6GJQsqaUBKTNV-1" parent="WIyWlLk6GJQsqaUBKTNV-0" />
        <mxCell id="0Z2qY7DhReuW0iwCyCFA-32" style="edgeStyle=orthogonalEdgeStyle;rounded=0;orthogonalLoop=1;jettySize=auto;html=1;entryX=0;entryY=0.25;entryDx=0;entryDy=0;" edge="1" parent="WIyWlLk6GJQsqaUBKTNV-1" source="WIyWlLk6GJQsqaUBKTNV-3" target="0Z2qY7DhReuW0iwCyCFA-9">
          <mxGeometry relative="1" as="geometry" />
        </mxCell>
        <mxCell id="WIyWlLk6GJQsqaUBKTNV-3" value="start" style="rounded=1;whiteSpace=wrap;html=1;fontSize=12;glass=0;strokeWidth=1;shadow=0;" parent="WIyWlLk6GJQsqaUBKTNV-1" vertex="1">
          <mxGeometry x="30" y="30" width="120" height="40" as="geometry" />
        </mxCell>
        <mxCell id="0Z2qY7DhReuW0iwCyCFA-34" style="edgeStyle=orthogonalEdgeStyle;rounded=0;orthogonalLoop=1;jettySize=auto;html=1;" edge="1" parent="WIyWlLk6GJQsqaUBKTNV-1" source="0Z2qY7DhReuW0iwCyCFA-9" target="0Z2qY7DhReuW0iwCyCFA-33">
          <mxGeometry relative="1" as="geometry" />
        </mxCell>
        <mxCell id="0Z2qY7DhReuW0iwCyCFA-9" value="size of map&lt;div&gt;amount of entities&lt;/div&gt;&lt;div&gt;seed of the map&lt;/div&gt;" style="shape=parallelogram;html=1;strokeWidth=2;perimeter=parallelogramPerimeter;whiteSpace=wrap;rounded=1;arcSize=12;size=0.23;" vertex="1" parent="WIyWlLk6GJQsqaUBKTNV-1">
          <mxGeometry x="200" y="30" width="150" height="60" as="geometry" />
        </mxCell>
        <mxCell id="0Z2qY7DhReuW0iwCyCFA-14" style="edgeStyle=orthogonalEdgeStyle;rounded=0;orthogonalLoop=1;jettySize=auto;html=1;entryX=0.5;entryY=0;entryDx=0;entryDy=0;" edge="1" parent="WIyWlLk6GJQsqaUBKTNV-1" source="0Z2qY7DhReuW0iwCyCFA-10" target="0Z2qY7DhReuW0iwCyCFA-13">
          <mxGeometry relative="1" as="geometry" />
        </mxCell>
        <mxCell id="0Z2qY7DhReuW0iwCyCFA-10" value="generate map" style="rounded=1;whiteSpace=wrap;html=1;absoluteArcSize=1;arcSize=14;strokeWidth=2;" vertex="1" parent="WIyWlLk6GJQsqaUBKTNV-1">
          <mxGeometry x="530" y="30" width="100" height="40" as="geometry" />
        </mxCell>
        <mxCell id="0Z2qY7DhReuW0iwCyCFA-13" value="generate entity" style="rounded=1;whiteSpace=wrap;html=1;absoluteArcSize=1;arcSize=14;strokeWidth=2;" vertex="1" parent="WIyWlLk6GJQsqaUBKTNV-1">
          <mxGeometry x="660" y="50" width="100" height="50" as="geometry" />
        </mxCell>
        <mxCell id="0Z2qY7DhReuW0iwCyCFA-18" style="edgeStyle=orthogonalEdgeStyle;rounded=0;orthogonalLoop=1;jettySize=auto;html=1;entryX=0.5;entryY=0;entryDx=0;entryDy=0;" edge="1" parent="WIyWlLk6GJQsqaUBKTNV-1" source="0Z2qY7DhReuW0iwCyCFA-15" target="0Z2qY7DhReuW0iwCyCFA-17">
          <mxGeometry relative="1" as="geometry" />
        </mxCell>
        <mxCell id="0Z2qY7DhReuW0iwCyCFA-19" value="no" style="edgeLabel;html=1;align=center;verticalAlign=middle;resizable=0;points=[];" vertex="1" connectable="0" parent="0Z2qY7DhReuW0iwCyCFA-18">
          <mxGeometry x="-0.1733" relative="1" as="geometry">
            <mxPoint as="offset" />
          </mxGeometry>
        </mxCell>
        <mxCell id="0Z2qY7DhReuW0iwCyCFA-15" value="is window&amp;nbsp;&lt;div&gt;Open&lt;/div&gt;" style="strokeWidth=2;html=1;shape=mxgraph.flowchart.decision;whiteSpace=wrap;" vertex="1" parent="WIyWlLk6GJQsqaUBKTNV-1">
          <mxGeometry x="650" y="260" width="100" height="100" as="geometry" />
        </mxCell>
        <mxCell id="0Z2qY7DhReuW0iwCyCFA-17" value="stop" style="rounded=1;whiteSpace=wrap;html=1;absoluteArcSize=1;arcSize=14;strokeWidth=2;" vertex="1" parent="WIyWlLk6GJQsqaUBKTNV-1">
          <mxGeometry x="650" y="400" width="100" height="80" as="geometry" />
        </mxCell>
        <mxCell id="0Z2qY7DhReuW0iwCyCFA-44" style="edgeStyle=orthogonalEdgeStyle;rounded=0;orthogonalLoop=1;jettySize=auto;html=1;entryX=0;entryY=0.5;entryDx=0;entryDy=0;" edge="1" parent="WIyWlLk6GJQsqaUBKTNV-1" source="0Z2qY7DhReuW0iwCyCFA-20" target="0Z2qY7DhReuW0iwCyCFA-42">
          <mxGeometry relative="1" as="geometry" />
        </mxCell>
        <mxCell id="0Z2qY7DhReuW0iwCyCFA-45" value="yes" style="edgeLabel;html=1;align=center;verticalAlign=middle;resizable=0;points=[];" vertex="1" connectable="0" parent="0Z2qY7DhReuW0iwCyCFA-44">
          <mxGeometry x="-0.1015" y="-2" relative="1" as="geometry">
            <mxPoint as="offset" />
          </mxGeometry>
        </mxCell>
        <mxCell id="0Z2qY7DhReuW0iwCyCFA-20" value="Did all iteration passed?" style="strokeWidth=2;html=1;shape=mxgraph.flowchart.decision;whiteSpace=wrap;" vertex="1" parent="WIyWlLk6GJQsqaUBKTNV-1">
          <mxGeometry x="470" y="180" width="100" height="100" as="geometry" />
        </mxCell>
        <mxCell id="0Z2qY7DhReuW0iwCyCFA-21" style="edgeStyle=orthogonalEdgeStyle;rounded=0;orthogonalLoop=1;jettySize=auto;html=1;entryX=1;entryY=0.5;entryDx=0;entryDy=0;entryPerimeter=0;" edge="1" parent="WIyWlLk6GJQsqaUBKTNV-1" source="0Z2qY7DhReuW0iwCyCFA-15" target="0Z2qY7DhReuW0iwCyCFA-20">
          <mxGeometry relative="1" as="geometry" />
        </mxCell>
        <mxCell id="0Z2qY7DhReuW0iwCyCFA-36" value="yes" style="edgeLabel;html=1;align=center;verticalAlign=middle;resizable=0;points=[];" vertex="1" connectable="0" parent="0Z2qY7DhReuW0iwCyCFA-21">
          <mxGeometry x="0.0133" y="1" relative="1" as="geometry">
            <mxPoint as="offset" />
          </mxGeometry>
        </mxCell>
        <mxCell id="0Z2qY7DhReuW0iwCyCFA-28" style="edgeStyle=orthogonalEdgeStyle;rounded=0;orthogonalLoop=1;jettySize=auto;html=1;entryX=0.5;entryY=0;entryDx=0;entryDy=0;" edge="1" parent="WIyWlLk6GJQsqaUBKTNV-1" source="0Z2qY7DhReuW0iwCyCFA-24" target="0Z2qY7DhReuW0iwCyCFA-26">
          <mxGeometry relative="1" as="geometry" />
        </mxCell>
        <mxCell id="0Z2qY7DhReuW0iwCyCFA-24" value="clear window" style="rounded=1;whiteSpace=wrap;html=1;absoluteArcSize=1;arcSize=14;strokeWidth=2;" vertex="1" parent="WIyWlLk6GJQsqaUBKTNV-1">
          <mxGeometry x="170" y="340" width="100" height="40" as="geometry" />
        </mxCell>
        <mxCell id="0Z2qY7DhReuW0iwCyCFA-29" style="edgeStyle=orthogonalEdgeStyle;rounded=0;orthogonalLoop=1;jettySize=auto;html=1;" edge="1" parent="WIyWlLk6GJQsqaUBKTNV-1" source="0Z2qY7DhReuW0iwCyCFA-26" target="0Z2qY7DhReuW0iwCyCFA-27">
          <mxGeometry relative="1" as="geometry" />
        </mxCell>
        <mxCell id="0Z2qY7DhReuW0iwCyCFA-26" value="draw entities" style="rounded=1;whiteSpace=wrap;html=1;absoluteArcSize=1;arcSize=14;strokeWidth=2;" vertex="1" parent="WIyWlLk6GJQsqaUBKTNV-1">
          <mxGeometry x="170" y="440" width="100" height="40" as="geometry" />
        </mxCell>
        <mxCell id="0Z2qY7DhReuW0iwCyCFA-46" style="edgeStyle=orthogonalEdgeStyle;rounded=0;orthogonalLoop=1;jettySize=auto;html=1;entryX=0.5;entryY=1;entryDx=0;entryDy=0;" edge="1" parent="WIyWlLk6GJQsqaUBKTNV-1" source="0Z2qY7DhReuW0iwCyCFA-27" target="0Z2qY7DhReuW0iwCyCFA-30">
          <mxGeometry relative="1" as="geometry" />
        </mxCell>
        <mxCell id="0Z2qY7DhReuW0iwCyCFA-27" value="display entities" style="rounded=1;whiteSpace=wrap;html=1;absoluteArcSize=1;arcSize=14;strokeWidth=2;" vertex="1" parent="WIyWlLk6GJQsqaUBKTNV-1">
          <mxGeometry x="40" y="440" width="100" height="40" as="geometry" />
        </mxCell>
        <mxCell id="0Z2qY7DhReuW0iwCyCFA-30" value="save entities status" style="rounded=1;whiteSpace=wrap;html=1;absoluteArcSize=1;arcSize=14;strokeWidth=2;" vertex="1" parent="WIyWlLk6GJQsqaUBKTNV-1">
          <mxGeometry x="40" y="180" width="100" height="30" as="geometry" />
        </mxCell>
        <mxCell id="0Z2qY7DhReuW0iwCyCFA-35" style="edgeStyle=orthogonalEdgeStyle;rounded=0;orthogonalLoop=1;jettySize=auto;html=1;entryX=0;entryY=0.5;entryDx=0;entryDy=0;" edge="1" parent="WIyWlLk6GJQsqaUBKTNV-1" source="0Z2qY7DhReuW0iwCyCFA-33" target="0Z2qY7DhReuW0iwCyCFA-10">
          <mxGeometry relative="1" as="geometry" />
        </mxCell>
        <mxCell id="0Z2qY7DhReuW0iwCyCFA-33" value="amount of&lt;div&gt;iteration&lt;/div&gt;" style="shape=parallelogram;html=1;strokeWidth=2;perimeter=parallelogramPerimeter;whiteSpace=wrap;rounded=1;arcSize=12;size=0.23;" vertex="1" parent="WIyWlLk6GJQsqaUBKTNV-1">
          <mxGeometry x="380" y="30" width="100" height="60" as="geometry" />
        </mxCell>
        <mxCell id="0Z2qY7DhReuW0iwCyCFA-62" style="edgeStyle=orthogonalEdgeStyle;rounded=0;orthogonalLoop=1;jettySize=auto;html=1;entryX=0.5;entryY=0;entryDx=0;entryDy=0;" edge="1" parent="WIyWlLk6GJQsqaUBKTNV-1" source="0Z2qY7DhReuW0iwCyCFA-40" target="0Z2qY7DhReuW0iwCyCFA-61">
          <mxGeometry relative="1" as="geometry" />
        </mxCell>
        <mxCell id="0Z2qY7DhReuW0iwCyCFA-40" value="open window" style="rounded=1;whiteSpace=wrap;html=1;absoluteArcSize=1;arcSize=14;strokeWidth=2;" vertex="1" parent="WIyWlLk6GJQsqaUBKTNV-1">
          <mxGeometry x="650" y="120" width="100" height="50" as="geometry" />
        </mxCell>
        <mxCell id="0Z2qY7DhReuW0iwCyCFA-41" style="edgeStyle=orthogonalEdgeStyle;rounded=0;orthogonalLoop=1;jettySize=auto;html=1;entryX=0.576;entryY=0.096;entryDx=0;entryDy=0;entryPerimeter=0;" edge="1" parent="WIyWlLk6GJQsqaUBKTNV-1" source="0Z2qY7DhReuW0iwCyCFA-13" target="0Z2qY7DhReuW0iwCyCFA-40">
          <mxGeometry relative="1" as="geometry" />
        </mxCell>
        <mxCell id="0Z2qY7DhReuW0iwCyCFA-43" style="edgeStyle=orthogonalEdgeStyle;rounded=0;orthogonalLoop=1;jettySize=auto;html=1;exitX=1;exitY=0.5;exitDx=0;exitDy=0;entryX=1;entryY=0.5;entryDx=0;entryDy=0;entryPerimeter=0;" edge="1" parent="WIyWlLk6GJQsqaUBKTNV-1" source="0Z2qY7DhReuW0iwCyCFA-42" target="0Z2qY7DhReuW0iwCyCFA-15">
          <mxGeometry relative="1" as="geometry">
            <mxPoint x="650" y="240" as="targetPoint" />
            <Array as="points">
              <mxPoint x="770" y="495" />
              <mxPoint x="770" y="300" />
              <mxPoint x="750" y="300" />
            </Array>
          </mxGeometry>
        </mxCell>
        <mxCell id="0Z2qY7DhReuW0iwCyCFA-42" value="close window" style="rounded=1;whiteSpace=wrap;html=1;absoluteArcSize=1;arcSize=14;strokeWidth=2;" vertex="1" parent="WIyWlLk6GJQsqaUBKTNV-1">
          <mxGeometry x="540" y="470" width="100" height="50" as="geometry" />
        </mxCell>
        <mxCell id="0Z2qY7DhReuW0iwCyCFA-52" style="edgeStyle=orthogonalEdgeStyle;rounded=0;orthogonalLoop=1;jettySize=auto;html=1;entryX=0.5;entryY=0;entryDx=0;entryDy=0;" edge="1" parent="WIyWlLk6GJQsqaUBKTNV-1" source="0Z2qY7DhReuW0iwCyCFA-48" target="0Z2qY7DhReuW0iwCyCFA-51">
          <mxGeometry relative="1" as="geometry" />
        </mxCell>
        <mxCell id="0Z2qY7DhReuW0iwCyCFA-54" value="yes" style="edgeLabel;html=1;align=center;verticalAlign=middle;resizable=0;points=[];" vertex="1" connectable="0" parent="0Z2qY7DhReuW0iwCyCFA-52">
          <mxGeometry x="-0.352" y="4" relative="1" as="geometry">
            <mxPoint as="offset" />
          </mxGeometry>
        </mxCell>
        <mxCell id="0Z2qY7DhReuW0iwCyCFA-55" style="edgeStyle=orthogonalEdgeStyle;rounded=0;orthogonalLoop=1;jettySize=auto;html=1;entryX=0.5;entryY=0;entryDx=0;entryDy=0;" edge="1" parent="WIyWlLk6GJQsqaUBKTNV-1" source="0Z2qY7DhReuW0iwCyCFA-48" target="0Z2qY7DhReuW0iwCyCFA-24">
          <mxGeometry relative="1" as="geometry" />
        </mxCell>
        <mxCell id="0Z2qY7DhReuW0iwCyCFA-56" value="no" style="edgeLabel;html=1;align=center;verticalAlign=middle;resizable=0;points=[];" vertex="1" connectable="0" parent="0Z2qY7DhReuW0iwCyCFA-55">
          <mxGeometry x="0.0442" y="-2" relative="1" as="geometry">
            <mxPoint as="offset" />
          </mxGeometry>
        </mxCell>
        <mxCell id="0Z2qY7DhReuW0iwCyCFA-48" value="Do the entities&lt;div&gt;touch&lt;/div&gt;" style="strokeWidth=2;html=1;shape=mxgraph.flowchart.decision;whiteSpace=wrap;" vertex="1" parent="WIyWlLk6GJQsqaUBKTNV-1">
          <mxGeometry x="300" y="180" width="100" height="100" as="geometry" />
        </mxCell>
        <mxCell id="0Z2qY7DhReuW0iwCyCFA-49" style="edgeStyle=orthogonalEdgeStyle;rounded=0;orthogonalLoop=1;jettySize=auto;html=1;entryX=1;entryY=0.5;entryDx=0;entryDy=0;entryPerimeter=0;" edge="1" parent="WIyWlLk6GJQsqaUBKTNV-1" source="0Z2qY7DhReuW0iwCyCFA-20" target="0Z2qY7DhReuW0iwCyCFA-48">
          <mxGeometry relative="1" as="geometry" />
        </mxCell>
        <mxCell id="0Z2qY7DhReuW0iwCyCFA-58" value="no" style="edgeLabel;html=1;align=center;verticalAlign=middle;resizable=0;points=[];" vertex="1" connectable="0" parent="0Z2qY7DhReuW0iwCyCFA-49">
          <mxGeometry x="0.1886" relative="1" as="geometry">
            <mxPoint as="offset" />
          </mxGeometry>
        </mxCell>
        <mxCell id="0Z2qY7DhReuW0iwCyCFA-53" style="edgeStyle=orthogonalEdgeStyle;rounded=0;orthogonalLoop=1;jettySize=auto;html=1;entryX=1;entryY=0.5;entryDx=0;entryDy=0;" edge="1" parent="WIyWlLk6GJQsqaUBKTNV-1" source="0Z2qY7DhReuW0iwCyCFA-51" target="0Z2qY7DhReuW0iwCyCFA-24">
          <mxGeometry relative="1" as="geometry" />
        </mxCell>
        <mxCell id="0Z2qY7DhReuW0iwCyCFA-51" value="event for those entities" style="rounded=1;whiteSpace=wrap;html=1;absoluteArcSize=1;arcSize=14;strokeWidth=2;" vertex="1" parent="WIyWlLk6GJQsqaUBKTNV-1">
          <mxGeometry x="300" y="330" width="100" height="50" as="geometry" />
        </mxCell>
        <mxCell id="0Z2qY7DhReuW0iwCyCFA-57" style="edgeStyle=orthogonalEdgeStyle;rounded=0;orthogonalLoop=1;jettySize=auto;html=1;entryX=0.5;entryY=0;entryDx=0;entryDy=0;entryPerimeter=0;" edge="1" parent="WIyWlLk6GJQsqaUBKTNV-1" source="0Z2qY7DhReuW0iwCyCFA-30" target="0Z2qY7DhReuW0iwCyCFA-20">
          <mxGeometry relative="1" as="geometry">
            <Array as="points">
              <mxPoint x="90" y="160" />
              <mxPoint x="510" y="160" />
            </Array>
          </mxGeometry>
        </mxCell>
        <mxCell id="0Z2qY7DhReuW0iwCyCFA-63" style="edgeStyle=orthogonalEdgeStyle;rounded=0;orthogonalLoop=1;jettySize=auto;html=1;" edge="1" parent="WIyWlLk6GJQsqaUBKTNV-1" source="0Z2qY7DhReuW0iwCyCFA-61" target="0Z2qY7DhReuW0iwCyCFA-15">
          <mxGeometry relative="1" as="geometry" />
        </mxCell>
        <mxCell id="0Z2qY7DhReuW0iwCyCFA-61" value="save entities status" style="rounded=1;whiteSpace=wrap;html=1;absoluteArcSize=1;arcSize=14;strokeWidth=2;" vertex="1" parent="WIyWlLk6GJQsqaUBKTNV-1">
          <mxGeometry x="650" y="200" width="100" height="30" as="geometry" />
        </mxCell>
      </root>
    </mxGraphModel>
  </diagram>
</mxfile>
